<?xml version="1.0" encoding="UTF-8" standalone="no"?>
<!-- Created with Inkscape (http://www.inkscape.org/) -->

<svg
   version="1.1"
   id="svg2"
   xml:space="preserve"
   width="384"
   height="123.92133"
   viewBox="0 0 384 123.92133"
   sodipodi:docname="au-brown.svg"
   inkscape:version="1.1.2 (0a00cf5339, 2022-02-04)"
   xmlns:inkscape="http://www.inkscape.org/namespaces/inkscape"
   xmlns:sodipodi="http://sodipodi.sourceforge.net/DTD/sodipodi-0.dtd"
   xmlns="http://www.w3.org/2000/svg"
   xmlns:svg="http://www.w3.org/2000/svg"><defs
     id="defs6"><clipPath
       clipPathUnits="userSpaceOnUse"
       id="clipPath16"><path
         d="M 0,0.014 H 288 V 92.941 H 0 Z"
         id="path14" /></clipPath><clipPath
       clipPathUnits="userSpaceOnUse"
       id="clipPath42"><path
         d="M 0,92.941 H 288 V 0 H 0 Z"
         id="path40" /></clipPath><clipPath
       clipPathUnits="userSpaceOnUse"
       id="clipPath54"><path
         d="M 0,0.014 H 288 V 92.941 H 0 Z"
         id="path52" /></clipPath><clipPath
       clipPathUnits="userSpaceOnUse"
       id="clipPath66"><path
         d="M 0,92.941 H 288 V 0 H 0 Z"
         id="path64" /></clipPath></defs><sodipodi:namedview
     id="namedview4"
     pagecolor="#ffffff"
     bordercolor="#666666"
     borderopacity="1.0"
     inkscape:pageshadow="2"
     inkscape:pageopacity="0.0"
     inkscape:pagecheckerboard="0"
     showgrid="false"
     inkscape:zoom="3.4401042"
     inkscape:cx="191.85466"
     inkscape:cy="61.91673"
     inkscape:window-width="2560"
     inkscape:window-height="1371"
     inkscape:window-x="0"
     inkscape:window-y="32"
     inkscape:window-maximized="1"
     inkscape:current-layer="g8" /><g
     id="g8"
     inkscape:groupmode="layer"
     inkscape:label="Adelphi_Wordmark_brown"
     transform="matrix(1.3333333,0,0,-1.3333333,0,123.92133)"><g
       id="g10"><g
         id="g12"
         clip-path="url(#clipPath16)"><g
           id="g18"
           transform="translate(19.478,8.501)"><path
             d="M 0,0 V 11.961 H 5.769 V 0.252 c 0,-2.843 0.704,-4.222 3.152,-4.222 2.393,0 3.153,1.296 3.153,4.306 v 11.625 h 5.825 V 0.083 c 0,-5.854 -3.433,-8.585 -8.978,-8.585 C 3.238,-8.502 0,-5.632 0,0"
             style="fill:#4b261d;fill-opacity:1;fill-rule:nonzero;stroke:none"
             id="path20" /></g></g></g><g
       id="g22"
       transform="translate(62.4978,20.4633)"><path
         d="M 0,0 V -11.344 L -6.445,0 h -6.502 v -20.126 h 5.069 V -7.49 l 7.346,-12.636 H 5.039 L 5.039,0 Z"
         style="fill:#4b261d;fill-opacity:1;fill-rule:nonzero;stroke:none"
         id="path24" /></g><path
       d="m 79.962,0.337 h 5.827 v 20.128 h -5.827 z"
       style="fill:#4b261d;fill-opacity:1;fill-rule:nonzero;stroke:none"
       id="path26" /><g
       id="g28"
       transform="translate(111.0024,20.4633)"><path
         d="M 0,0 -4.111,-14.132 -8.192,0 h -6.22 l 6.673,-20.126 h 6.556 L 5.4,0 Z"
         style="fill:#4b261d;fill-opacity:1;fill-rule:nonzero;stroke:none"
         id="path30" /></g><g
       id="g32"
       transform="translate(127.1169,20.4633)"><path
         d="m 0,0 v -20.126 h 14.354 v 4.448 H 5.742 v 3.659 h 6.501 v 4.111 H 5.742 v 3.458 h 8.16 V 0 Z"
         style="fill:#4b261d;fill-opacity:1;fill-rule:nonzero;stroke:none"
         id="path34" /></g><g
       id="g36"><g
         id="g38"
         clip-path="url(#clipPath42)"><g
           id="g44"
           transform="translate(152.7754,20.4619)"><path
             d="m 0,0 h 7.879 c 5.264,0 8.191,-2.141 8.191,-6.39 v -0.112 c 0,-2.871 -1.52,-4.475 -3.632,-5.291 l 4.814,-8.331 H 11.174 L 7.092,-12.92 H 5.74 v -7.204 H 0 Z m 7.6,-9.176 c 1.94,0 2.897,0.817 2.897,2.447 v 0.114 c 0,1.635 -1.012,2.279 -2.87,2.279 H 5.74 v -4.84 H 7.6"
             style="fill:#4b261d;fill-opacity:1;fill-rule:nonzero;stroke:none"
             id="path46" /></g></g></g><g
       id="g48"><g
         id="g50"
         clip-path="url(#clipPath54)"><g
           id="g56"
           transform="translate(179.248,6.7275)"><path
             d="m 0,0 h 5.488 c 0.141,-1.437 0.787,-2.618 3.181,-2.618 1.659,0 2.59,0.816 2.59,1.997 0,1.238 -0.762,1.578 -3.18,1.945 -5.685,0.676 -7.6,2.364 -7.6,6.414 0,3.632 2.984,6.279 7.795,6.279 4.841,0 7.572,-2.03 7.937,-6.279 h -5.347 c -0.197,1.438 -1.011,2.168 -2.59,2.168 -1.546,0 -2.335,-0.702 -2.335,-1.718 0,-1.125 0.619,-1.63 3.124,-1.967 5.092,-0.564 7.71,-1.887 7.71,-6.25 0,-3.687 -2.925,-6.7 -8.104,-6.7 C 3.04,-6.729 0.168,-4.362 0,0"
             style="fill:#4b261d;fill-opacity:1;fill-rule:nonzero;stroke:none"
             id="path58" /></g></g></g><g
       id="g60"><g
         id="g62"
         clip-path="url(#clipPath66)"><path
           d="m 207.298,0.337 h 5.827 v 20.128 h -5.827 z"
           style="fill:#4b261d;fill-opacity:1;fill-rule:nonzero;stroke:none"
           id="path68" /><g
           id="g70"
           transform="translate(224.1777,20.4629)"><path
             d="m 0,0 v -4.449 h 5.209 v -15.676 h 5.795 V -4.449 H 16.21 V 0 Z"
             style="fill:#4b261d;fill-opacity:1;fill-rule:nonzero;stroke:none"
             id="path72" /></g><g
           id="g74"
           transform="translate(263.0068,20.4629)"><path
             d="M 0,0 -3.407,-6.784 -6.812,0 h -6.276 l 6.558,-11.513 v -8.612 h 5.795 v 8.612 L 5.515,0 Z"
             style="fill:#4b261d;fill-opacity:1;fill-rule:nonzero;stroke:none"
             id="path76" /></g><g
           id="g78"
           transform="translate(176.4121,55.6421)"><path
             d="M 0,0 H -17.633 V 33.142 H -34.312 V -14.947 H 0 Z M -18.677,32.099 V -1.044 h 17.633 l 0.001,-12.86 h -32.225 v 46.003 z"
             style="fill:#4b261d;fill-opacity:1;fill-rule:nonzero;stroke:none"
             id="path80" /></g><g
           id="g82"
           transform="translate(157.7354,54.5981)"><path
             d="m 0,0 v 33.142 h -14.592 l 0.001,-46.002 H 17.633 V 0 Z"
             style="fill:#ffffff;fill-opacity:1;fill-rule:nonzero;stroke:none"
             id="path84" /></g><g
           id="g86"
           transform="translate(133.7632,61.2671)"><path
             d="M 0,0 V 6.865 H -17.463 V 15.58 H 2.183 l 0.005,8.736 -19.237,-10e-4 -2.611,-0.006 -8.447,0.006 V -17.441 H 2.575 v 8.727 l -20.038,0.002 0.006,4.216 -0.006,3.956 h 0.011 V 0 Z"
             style="fill:#4b261d;fill-opacity:1;fill-rule:nonzero;stroke:none"
             id="path88" /></g><g
           id="g90"
           transform="translate(118.3882,54.6401)"><path
             d="M 0,0 V 0.002 H -0.01 L 0,4.54 H 17.452 V 15.58 H -0.01 v 4.54 H 19.636 L 19.639,33.031 -14.829,33.03 V -12.902 H 20.028 V 0 Z m 17.95,-10.814 h -30.682 v 41.756 l 8.447,-0.005 2.611,0.005 19.236,0.001 -0.003,-8.736 H -2.088 V 13.492 H 15.375 V 6.627 H -2.077 V 6.088 L -2.082,2.132 -2.088,-2.085 17.95,-2.087 Z"
             style="fill:#ffffff;fill-opacity:1;fill-rule:nonzero;stroke:none"
             id="path92" /></g><g
           id="g94"
           transform="translate(119.4321,55.6841)"><path
             d="M 0,0 H -0.011 V 0.003 L 0,2.438 V 2.452 H 17.452 V 15.58 H -0.011 v 2.452 H 19.635 V 33.031 H -16.916 V -14.99 H 20.027 V 0 Z M 18.983,-13.946 H -15.873 V 31.987 H 18.595 L 18.592,19.076 H -1.055 v -4.54 H 16.408 V 3.496 H -1.044 l -0.01,-4.54 h 0.028 l -0.018,0.002 20.027,-0.002 z"
             style="fill:#4b261d;fill-opacity:1;fill-rule:nonzero;stroke:none"
             id="path96" /></g><g
           id="g98"
           transform="translate(204.2061,85.2251)"><path
             d="m 0,0 c -0.651,0.051 -1.331,0.095 -2.02,0.131 -1.983,0.106 -4.16,0.159 -6.655,0.159 -2.229,0 -4.513,-0.041 -6.721,-0.081 h -0.031 C -17.578,0.171 -19.8,0.131 -22.015,0.128 v -41.527 h 10.542 v 12.056 l 2.651,-0.042 c 0.513,-0.008 1.017,-0.015 1.513,-0.015 0.882,0 1.602,0.022 2.266,0.071 l 0.497,0.037 c 2.083,0.151 4.234,0.307 6.223,0.859 6.559,1.821 10.49,8.066 10.011,15.912 C 11.275,-5.756 6.36,-0.49 0,0 m -1.89,-21.304 c -1.125,-0.132 -2.346,-0.194 -3.84,-0.194 -1.013,0 -2.013,0.027 -3.074,0.056 l -2.725,0.069 V -6.78 l 2.634,0.034 c 1.027,0.022 1.997,0.041 2.98,0.041 1.46,0 2.657,-0.046 3.769,-0.143 3.013,-0.265 4.959,-2.897 5.081,-6.869 0.131,-4.314 -1.717,-7.22 -4.825,-7.587"
             style="fill:#4b261d;fill-opacity:1;fill-rule:nonzero;stroke:none"
             id="path100" /></g><g
           id="g102"
           transform="translate(204.3564,87.3071)"><path
             d="m 0,0 c -0.665,0.051 -1.361,0.096 -2.068,0.134 -2.022,0.109 -4.236,0.161 -6.767,0.161 -2.263,0 -4.563,-0.041 -6.789,-0.08 -2.241,-0.04 -4.56,-0.081 -6.855,-0.081 h -1.784 v -45.703 h 14.717 v 12.024 l 0.53,-0.009 c 0.525,-0.008 1.039,-0.016 1.547,-0.016 0.935,0 1.703,0.025 2.419,0.078 l 0.496,0.036 c 2.182,0.159 4.439,0.322 6.628,0.93 7.55,2.095 12.078,9.18 11.537,18.051 C 13.135,-6.659 7.411,-0.572 0,0 m 1.526,-30.515 c -1.989,-0.551 -4.139,-0.708 -6.222,-0.859 l -0.497,-0.036 c -0.664,-0.049 -1.384,-0.072 -2.266,-0.072 -0.496,0 -0.999,0.007 -1.514,0.015 l -2.65,0.042 v -12.056 h -10.542 v 41.527 c 2.215,0.004 4.436,0.044 6.588,0.082 h 0.03 c 2.209,0.039 4.492,0.08 6.722,0.08 2.494,0 4.672,-0.052 6.655,-0.158 0.688,-0.037 1.368,-0.081 2.02,-0.131 6.36,-0.49 11.275,-5.756 11.688,-12.521 0.479,-7.846 -3.452,-14.092 -10.012,-15.913"
             style="fill:#ffffff;fill-opacity:1;fill-rule:nonzero;stroke:none"
             id="path104" /></g><g
           id="g106"
           transform="translate(202.0605,78.3779)"><path
             d="m 0,0 c -1.112,0.098 -2.31,0.143 -3.77,0.143 -0.983,0 -1.952,-0.02 -2.979,-0.04 L -9.383,0.068 v -14.593 l 2.726,-0.069 c 1.058,-0.029 2.06,-0.056 3.073,-0.056 1.494,0 2.714,0.061 3.84,0.194 3.107,0.366 4.956,3.273 4.824,7.587 C 4.959,-2.898 3.013,-0.266 0,0 m 0.003,-12.382 c -1.042,-0.123 -2.187,-0.18 -3.598,-0.18 -0.994,0 -1.979,0.026 -3.022,0.055 l -0.68,0.018 -0.009,0.508 V -2 l 0.569,0.015 c 1.02,0.021 1.983,0.041 2.958,0.041 1.399,0 2.539,-0.044 3.586,-0.136 2.818,-0.248 3.143,-3.777 3.176,-4.853 0.076,-2.456 -0.669,-5.177 -2.98,-5.449"
             style="fill:#ffffff;fill-opacity:1;fill-rule:nonzero;stroke:none"
             id="path108" /></g><g
           id="g110"
           transform="translate(219.0098,72.895)"><path
             d="m 0,0 c -0.509,8.341 -6.637,14.84 -14.573,15.452 -0.673,0.052 -1.377,0.098 -2.093,0.136 -2.04,0.11 -4.271,0.163 -6.821,0.163 -2.274,0 -4.578,-0.042 -6.809,-0.081 -2.237,-0.04 -4.55,-0.081 -6.837,-0.081 h -2.826 v -47.79 h 16.803 v 12.008 c 0.348,-0.006 0.693,-0.008 1.034,-0.008 0.961,0 1.754,0.025 2.496,0.079 l 0.494,0.037 c 2.234,0.162 4.542,0.33 6.832,0.965 C -4.256,-16.888 0.572,-9.383 0,0 M -24.199,-19.133 -24.2,-31.157 h -14.716 v 45.702 h 1.783 c 2.297,0 4.614,0.041 6.856,0.081 2.225,0.041 4.526,0.081 6.79,0.081 2.531,0 4.744,-0.053 6.765,-0.161 0.707,-0.038 1.404,-0.083 2.069,-0.134 7.41,-0.572 13.134,-6.659 13.611,-14.476 0.541,-8.87 -3.989,-15.956 -11.537,-18.05 -2.19,-0.608 -4.446,-0.771 -6.628,-0.93 l -0.496,-0.036 c -0.716,-0.053 -1.484,-0.078 -2.419,-0.078 -0.507,0 -1.022,0.007 -1.547,0.016 l -0.53,0.009"
             style="fill:#4b261d;fill-opacity:1;fill-rule:nonzero;stroke:none"
             id="path112" /></g><g
           id="g114"
           transform="translate(205.0439,71.4438)"><path
             d="m 0,0 c -0.032,1.076 -0.357,4.605 -3.177,4.854 -1.047,0.092 -2.185,0.134 -3.586,0.134 -0.974,0 -3.526,-0.055 -3.526,-0.055 l 0.01,-10.489 c 0,0 2.708,-0.074 3.702,-0.074 1.41,0 2.553,0.058 3.597,0.18 C -0.669,-5.177 0.075,-2.455 0,0 m -9.246,-4.54 v 8.454 c 0.849,0.017 1.664,0.031 2.483,0.031 1.369,0 2.479,-0.042 3.494,-0.132 1.962,-0.172 2.2,-2.986 2.226,-3.845 0.01,-0.318 0.018,-1.435 -0.281,-2.473 -0.338,-1.167 -0.937,-1.808 -1.78,-1.908 -1,-0.118 -2.104,-0.173 -3.473,-0.173 -0.877,0 -1.752,0.022 -2.669,0.046"
             style="fill:#4b261d;fill-opacity:1;fill-rule:nonzero;stroke:none"
             id="path116" /></g><g
           id="g118"
           transform="translate(234.6855,85.6001)"><path
             d="M 0,0 -10.38,0.015 V -41.774 H 0.115 v 16.831 H 18.899 V -41.774 H 29.406 V -0.018 L 18.781,-0.033 v -15.882 l -18.781,0 z"
             style="fill:#4b261d;fill-opacity:1;fill-rule:nonzero;stroke:none"
             id="path120" /></g><g
           id="g122"
           transform="translate(236.7627,87.6841)"><path
             d="M 0,0 -14.555,0.021 V -45.946 H 0.116 v 16.831 H 14.725 V -45.946 H 29.407 V -0.012 L 14.606,-0.033 v -15.878 l -14.606,0 z m 16.704,-17.998 v 15.881 l 10.625,0.014 V -43.859 H 16.821 v 16.831 H -1.961 V -43.859 H -12.457 V -2.07 l 10.38,-0.014 v -15.914 z"
             style="fill:#ffffff;fill-opacity:1;fill-rule:nonzero;stroke:none"
             id="path124" /></g><g
           id="g126"
           transform="translate(250.3262,88.6938)"><path
             d="M 0,0 V -15.877 H -12.52 V 0.032 L -29.162,0.055 V -48 h 16.758 v 16.831 H 0.117 V -48 h 16.77 V 0.023 Z M 15.844,-46.957 H 1.161 v 16.832 h -14.609 v -16.832 h -14.67 V -0.99 l 14.555,-0.02 V -16.921 H 1.043 v 15.879 l 14.801,0.02 z"
             style="fill:#4b261d;fill-opacity:1;fill-rule:nonzero;stroke:none"
             id="path128" /></g><g
           id="g130"
           transform="translate(155.6582,52.5098)"><path
             d="M 0,0 V 33.143 H -10.417 V -8.686 h 28.05 V 0 Z"
             style="fill:#4b271e;fill-opacity:1;fill-rule:nonzero;stroke:none"
             id="path132" /></g><g
           id="g134"
           transform="translate(145.2412,43.8252)"><path
             d="M 0,0 V 41.828 H 10.417 V 8.686 H 28.05 L 28.05,0 Z"
             style="fill:#4b261d;fill-opacity:1;fill-rule:nonzero;stroke:none"
             id="path136" /></g><g
           id="g138"
           transform="translate(284.8789,85.6128)"><path
             d="M 0,0 -10.373,-0.006 V -41.787 H 0 Z"
             style="fill:#4b261d;fill-opacity:1;fill-rule:nonzero;stroke:none"
             id="path140" /></g><g
           id="g142"
           transform="translate(272.4092,41.7383)"><path
             d="M 0,0 H 14.547 V 45.963 L 0,45.955 Z M 2.097,43.869 12.47,43.875 V 2.087 H 2.097 Z"
             style="fill:#ffffff;fill-opacity:1;fill-rule:nonzero;stroke:none"
             id="path144" /></g><g
           id="g146"
           transform="translate(271.3652,88.7358)"><path
             d="M 0,0 V -48.041 H 16.635 V 0.01 Z m 1.044,-1.043 14.548,0.009 V -46.998 H 1.044 Z"
             style="fill:#4b261d;fill-opacity:1;fill-rule:nonzero;stroke:none"
             id="path148" /></g><g
           id="g150"
           transform="translate(80.1851,85.314)"><path
             d="m 0,0 c -1.674,0.177 -3.442,0.301 -5.404,0.378 -2.187,0.087 -4.206,0.097 -5.534,0.097 -1.666,0 -3.362,-0.02 -5.001,-0.039 h -0.033 c -1.557,-0.018 -3.322,-0.038 -5.031,-0.038 -0.398,0 -0.578,-0.006 -0.748,-0.011 -0.104,-0.003 -0.204,-0.007 -0.341,-0.009 v -41.866 h 15.466 c 1.887,0.009 3.62,0.025 5.285,0.051 1.345,0.02 2.842,0.314 4.712,0.93 8.479,2.79 12.944,8.769 13.651,18.279 0.441,5.931 -0.982,11.207 -4.116,15.258 C 9.818,-2.977 5.355,-0.566 0,0 m 4.593,-27.516 c -1.589,-3.469 -4.39,-5.303 -8.103,-5.303 l -0.1,0.001 c -1.719,0.016 -3.41,0.012 -5.142,0.007 h -2.685 v 24.192 l 3.348,0.093 c 1.046,0.03 2.021,0.059 3.02,0.059 1.529,0 2.781,-0.071 3.937,-0.223 2.503,-0.329 4.591,-2.184 5.88,-5.224 1.938,-4.568 1.885,-9.145 -0.155,-13.602"
             style="fill:#4b261d;fill-opacity:1;fill-rule:nonzero;stroke:none"
             id="path152" /></g><g
           id="g154"
           transform="translate(79.0542,76.624)"><path
             d="m 0,0 c -1.157,0.152 -2.408,0.223 -3.938,0.223 -0.999,0 -1.973,-0.029 -3.019,-0.059 l -3.348,-0.093 v -24.192 h 2.685 c 1.731,0.005 3.424,0.009 5.141,-0.007 l 0.101,-0.001 c 3.712,0 6.515,1.833 8.102,5.303 2.041,4.457 2.093,9.034 0.156,13.602 C 4.591,-2.184 2.503,-0.329 0,0 m 3.817,-17.957 c -1.241,-2.71 -3.329,-4.085 -6.206,-4.085 l -0.087,0.001 c -1.66,0.016 -3.314,0.013 -4.999,0.008 h -0.752 v 20.072 l 1.321,0.037 c 1.017,0.031 1.977,0.06 2.958,0.06 1.439,0 2.603,-0.066 3.665,-0.206 1.765,-0.232 3.229,-1.604 4.231,-3.969 1.699,-4.006 1.655,-8.016 -0.131,-11.918"
             style="fill:#ffffff;fill-opacity:1;fill-rule:nonzero;stroke:none"
             id="path156" /></g><g
           id="g158"
           transform="translate(80.395,87.3901)"><path
             d="m 0,0 c -1.72,0.182 -3.532,0.309 -5.543,0.389 -2.219,0.087 -4.268,0.097 -5.615,0.097 -1.678,0 -3.38,-0.019 -5.026,-0.038 h -0.031 C -17.859,0.429 -19.56,0.41 -21.223,0.41 c -0.44,0 -0.635,-0.007 -0.823,-0.013 -0.151,-0.004 -0.29,-0.009 -0.57,-0.009 h -1.783 v -46.04 h 17.553 c 1.905,0.01 3.644,0.027 5.316,0.051 1.563,0.022 3.258,0.351 5.333,1.035 9.241,3.041 14.315,9.806 15.081,20.108 C 19.859,-11.337 12.094,-1.28 0,0 m 16.813,-24.303 c -0.708,-9.51 -5.173,-15.489 -13.653,-18.28 -1.869,-0.615 -3.366,-0.911 -4.711,-0.93 -1.665,-0.027 -3.398,-0.042 -5.285,-0.051 h -15.465 v 41.867 c 0.136,0.002 0.235,0.005 0.34,0.008 0.17,0.005 0.351,0.011 0.748,0.011 1.709,0 3.475,0.02 5.032,0.038 l 0.031,10e-4 c 1.64,0.018 3.336,0.038 5.001,0.038 1.329,0 3.348,-0.01 5.534,-0.096 1.963,-0.077 3.731,-0.202 5.405,-0.379 5.355,-0.566 9.817,-2.977 12.906,-6.969 3.134,-4.052 4.557,-9.328 4.117,-15.258"
             style="fill:#ffffff;fill-opacity:1;fill-rule:nonzero;stroke:none"
             id="path160" /></g><g
           id="g162"
           transform="translate(83.002,70.5859)"><path
             d="m 0,0 c -1.003,2.364 -2.466,3.737 -4.23,3.969 -1.063,0.139 -2.228,0.205 -3.666,0.205 -0.98,0 -1.941,-0.029 -2.958,-0.059 l -1.322,-0.037 v -20.072 h 0.754 c 1.684,0.004 3.338,0.007 4.997,-0.009 h 0.088 c 2.876,0 4.964,1.374 6.205,4.084 C 1.655,-8.017 1.699,-4.006 0,0 M -11.132,-14.95 V 3.063 l 0.308,0.009 c 1.01,0.03 1.963,0.058 2.928,0.058 1.392,0 2.513,-0.062 3.529,-0.196 1.741,-0.229 2.813,-1.943 3.406,-3.342 1.58,-3.725 1.54,-7.451 -0.12,-11.076 -1.086,-2.371 -2.755,-3.475 -5.252,-3.475 h -0.084 c -0.951,0.009 -1.903,0.012 -2.86,0.012 -0.615,0 -1.234,-0.001 -1.855,-0.003"
             style="fill:#4b261d;fill-opacity:1;fill-rule:nonzero;stroke:none"
             id="path164" /></g><g
           id="g166"
           transform="translate(16.8311,65.3369)"><path
             d="m 0,0 c -3.836,-7.033 -7.799,-14.299 -11.621,-21.513 h 11.36 c 0.272,0.521 1.274,2.437 2.027,3.938 l 0.723,1.437 h 17.708 l 0.714,-1.467 c 0.692,-1.42 1.589,-3.226 1.928,-3.908 H 34.295 C 27.074,-7.896 13.432,17.148 11.339,20.987 7.649,14.023 3.762,6.897 0,0 M 2.861,-9.681 11.338,6.916 19.816,-9.681 H 2.861"
             style="fill:#4b261d;fill-opacity:1;fill-rule:nonzero;stroke:none"
             id="path168" /></g><g
           id="g170"
           transform="translate(19.6919,55.6572)"><path
             d="M 0,0 H 16.955 L 8.478,16.597 Z m 3.4,2.087 5.067,9.921 5.068,-9.921 z"
             style="fill:#ffffff;fill-opacity:1;fill-rule:nonzero;stroke:none"
             id="path172" /></g><g
           id="g174"
           transform="translate(53.208,44.3369)"><path
             d="m 0,0 c -7.723,14.578 -23.331,43.199 -23.486,43.484 l -1.589,2.914 -1.553,-2.934 C -30.391,36.354 -34.371,29.057 -38.22,22 -42.139,14.814 -46.192,7.383 -50.1,-0.002 L -51.475,-2.6 h 16.089 l 0.517,0.986 c 0.305,0.583 1.337,2.556 2.113,4.101 l 0.145,0.287 h 15.115 l 0.143,-0.293 c 0.742,-1.523 1.716,-3.48 1.997,-4.043 L -14.839,-2.6 H 1.377 Z m -13.538,-0.512 c -0.339,0.68 -1.237,2.488 -1.928,3.907 l -0.714,1.467 h -17.709 l -0.722,-1.438 c -0.754,-1.5 -1.755,-3.417 -2.027,-3.936 h -11.36 c 3.821,7.213 7.785,14.479 11.621,21.513 3.761,6.896 7.648,14.023 11.339,20.986 2.093,-3.84 15.735,-28.883 22.957,-42.499 h -11.457"
             style="fill:#ffffff;fill-opacity:1;fill-rule:nonzero;stroke:none"
             id="path176" /></g><g
           id="g178"
           transform="translate(23.0918,57.7451)"><path
             d="M 0,0 H 10.134 L 5.067,9.921 Z M 1.705,1.044 5.067,7.626 8.429,1.044 Z"
             style="fill:#4b261d;fill-opacity:1;fill-rule:nonzero;stroke:none"
             id="path180" /></g><g
           id="g182"
           transform="translate(80.5049,88.4282)"><path
             d="m 0,0 c -1.742,0.184 -3.578,0.313 -5.611,0.394 -2.238,0.087 -4.301,0.098 -5.659,0.098 -1.682,0 -3.387,-0.019 -5.036,-0.039 h -0.031 c -1.642,-0.018 -3.338,-0.037 -4.996,-0.037 -0.458,0 -0.662,-0.007 -0.865,-0.014 -0.134,-0.005 -0.264,-0.008 -0.528,-0.008 h -2.827 v -45.549 l -0.822,1.553 c -7.726,14.583 -23.337,43.21 -23.492,43.496 l -2.52,4.619 -2.461,-4.651 c -3.76,-7.105 -7.738,-14.399 -11.586,-21.453 -3.92,-7.189 -7.975,-14.622 -11.886,-22.013 l -2.185,-4.13 h 18.452 l 0.819,1.559 c 0.28,0.536 1.21,2.315 1.968,3.816 h 13.821 c 0.72,-1.476 1.594,-3.231 1.866,-3.779 l 0.796,-1.596 h 35.829 c 1.911,0.01 3.655,0.026 5.329,0.051 1.672,0.023 3.465,0.37 5.645,1.088 9.68,3.184 14.995,10.259 15.796,21.022 C 20.835,-11.859 12.687,-1.343 0,0 m -42.137,-46.69 -0.517,1.037 c -0.281,0.564 -1.254,2.521 -1.996,4.044 l -0.144,0.294 h -15.115 l -0.144,-0.289 c -0.777,-1.544 -1.808,-3.519 -2.113,-4.102 l -0.518,-0.984 h -16.088 l 1.375,2.599 c 3.907,7.384 7.96,14.815 11.88,22.001 3.849,7.056 7.829,14.353 11.592,21.464 l 1.552,2.934 1.589,-2.914 c 0.156,-0.285 15.763,-28.907 23.487,-43.484 l 1.377,-2.6 z m 60.911,21.194 c -0.766,-10.302 -5.84,-17.067 -15.081,-20.108 -2.076,-0.685 -3.77,-1.013 -5.333,-1.035 -1.672,-0.026 -3.412,-0.041 -5.316,-0.051 h -17.553 v 46.04 h 1.783 c 0.28,0 0.419,0.004 0.57,0.009 0.187,0.006 0.384,0.013 0.823,0.013 1.663,0 3.364,0.019 5.007,0.037 l 0.032,0.001 c 1.646,0.019 3.348,0.038 5.025,0.038 1.348,0 3.397,-0.01 5.617,-0.098 2.01,-0.079 3.823,-0.206 5.542,-0.388 12.094,-1.28 19.86,-11.338 18.884,-24.458"
             style="fill:#4b261d;fill-opacity:1;fill-rule:nonzero;stroke:none"
             id="path184" /></g></g></g></g></svg>
